<?xml version="1.0" standalone="no"?>
<!DOCTYPE svg PUBLIC "-//W3C//DTD SVG 20010904//EN"
 "http://www.w3.org/TR/2001/REC-SVG-20010904/DTD/svg10.dtd">
<svg version="1.0" xmlns="http://www.w3.org/2000/svg"
 width="26.000000pt" height="26.000000pt" viewBox="0 0 26.000000 26.000000"
 preserveAspectRatio="xMidYMid meet">

<g transform="translate(0.000000,26.000000) scale(0.100000,-0.100000)"
fill="#000000" stroke="none">
<path d="M113 222 c-6 -4 -13 -28 -15 -52 -2 -38 -7 -46 -25 -48 -13 -2 -23
-6 -23 -9 0 -16 64 -83 80 -83 17 0 80 65 80 82 0 3 -10 8 -22 10 -19 2 -24
10 -26 48 -3 39 -14 60 -32 60 -3 0 -10 -4 -17 -8z"/>
</g>
</svg>
