<?xml version="1.0" encoding="UTF-8"?>
<svg version="1.1" xmlns="http://www.w3.org/2000/svg" width="48" height="48">
<path d="M0 0 C2.31 0 4.62 0 7 0 C7 0.66 7 1.32 7 2 C6.01 2.495 6.01 2.495 5 3 C5.86625 3.83144531 5.86625 3.83144531 6.75 4.6796875 C7.86375 5.76636719 7.86375 5.76636719 9 6.875 C10.11375 7.95394531 10.11375 7.95394531 11.25 9.0546875 C13 11 13 11 13 13 C8.70761377 11.34908222 6.1206085 8.26245434 3 5 C2.67 5.66 2.34 6.32 2 7 C1.34 7 0.68 7 0 7 C0 4.69 0 2.38 0 0 Z " fill="#000000" transform="translate(2,2)"/>
</svg>
