<?xml version="1.0" standalone="no"?>
<!DOCTYPE svg PUBLIC "-//W3C//DTD SVG 20010904//EN"
 "http://www.w3.org/TR/2001/REC-SVG-20010904/DTD/svg10.dtd">
<svg version="1.0" xmlns="http://www.w3.org/2000/svg"
 width="26.000000pt" height="26.000000pt" viewBox="0 0 26.000000 26.000000"
 preserveAspectRatio="xMidYMid meet">

<g transform="translate(0.000000,26.000000) scale(0.100000,-0.100000)"
fill="#000000" stroke="none">
<path d="M87 203 c-4 -3 0 -14 9 -24 16 -17 14 -21 -15 -55 -34 -38 -35 -51
-8 -68 13 -8 24 -4 51 23 34 33 36 34 55 17 17 -15 19 -15 25 -1 3 9 6 39 6
66 l0 49 -58 0 c-32 0 -62 -3 -65 -7z"/>
</g>
</svg>
